<?xml version="1.0" encoding="UTF-8"?>
<svg width="72" height="72" viewBox="0 0 72 72" xmlns="http://www.w3.org/2000/svg">
  <rect width="72" height="72" rx="15" fill="#4A90E2"/>
  
  <!-- Cloud -->
  <g transform="translate(36, 18)">
    <!-- Cloud body -->
    <ellipse cx="0" cy="0" rx="22" ry="11" fill="#FFFFFF"/>
    <circle cx="-13" cy="-2" r="7" fill="#FFFFFF"/>
    <circle cx="13" cy="-2" r="7" fill="#FFFFFF"/>
    <circle cx="-6" cy="-6" r="5" fill="#FFFFFF"/>
    <circle cx="6" cy="-6" r="5" fill="#FFFFFF"/>
    
    <!-- Cloud smile -->
    <path d="M -6 2 Q 0 6 6 2" stroke="#4A90E2" stroke-width="2" fill="none" stroke-linecap="round"/>
    
    <!-- Cloud eyes -->
    <circle cx="-4" cy="-1" r="2" fill="#4A90E2"/>
    <circle cx="4" cy="-1" r="2" fill="#4A90E2"/>
  </g>
  
  <!-- PC Monitor -->
  <g transform="translate(36, 49)">
    <!-- Monitor screen -->
    <rect x="-18" y="-8" width="36" height="12" rx="1" fill="#2C3E50"/>
    <rect x="-16" y="-6" width="32" height="8" rx="0.5" fill="#34495E"/>
    
    <!-- Screen content -->
    <rect x="-14" y="-5" width="4" height="1" fill="#4A90E2"/>
    <rect x="-14" y="-3" width="6" height="0.5" fill="#7FB3D3"/>
    <rect x="-6" y="-5" width="3" height="3" fill="#5DADE2"/>
    <rect x="-2" y="-5" width="4" height="1" fill="#4A90E2"/>
    
    <!-- Monitor stand -->
    <rect x="-2" y="4" width="4" height="6" fill="#34495E"/>
    <rect x="-9" y="10" width="18" height="2" rx="0.5" fill="#2C3E50"/>
  </g>
</svg>