<?xml version="1.0" encoding="UTF-8"?>
<svg width="16" height="16" viewBox="0 0 16 16" xmlns="http://www.w3.org/2000/svg">
  <!-- Cloud -->
  <g transform="translate(8, 4)">
    <!-- Cloud body -->
    <ellipse cx="0" cy="0" rx="5" ry="2.5" fill="#4A90E2"/>
    <circle cx="-3" cy="-0.5" r="1.8" fill="#4A90E2"/>
    <circle cx="3" cy="-0.5" r="1.8" fill="#4A90E2"/>
    <circle cx="-1.5" cy="-1.5" r="1.2" fill="#4A90E2"/>
    <circle cx="1.5" cy="-1.5" r="1.2" fill="#4A90E2"/>
    
    <!-- Cloud smile -->
    <path d="M -1.5 0.5 Q 0 1.5 1.5 0.5" stroke="#FFFFFF" stroke-width="0.4" fill="none" stroke-linecap="round"/>
    
    <!-- Cloud eyes -->
    <circle cx="-1" cy="0" r="0.4" fill="#FFFFFF"/>
    <circle cx="1" cy="0" r="0.4" fill="#FFFFFF"/>
    <circle cx="-1" cy="0" r="0.2" fill="#333"/>
    <circle cx="1" cy="0" r="0.2" fill="#333"/>
  </g>
  
  <!-- PC Monitor -->
  <g transform="translate(8, 11)">
    <!-- Monitor screen -->
    <rect x="-4" y="-2" width="8" height="3" rx="0.3" fill="#2C3E50" stroke="#4A90E2" stroke-width="0.4"/>
    <rect x="-3.5" y="-1.5" width="7" height="2" rx="0.2" fill="#34495E"/>
    
    <!-- Screen content -->
    <rect x="-3" y="-1.2" width="1" height="0.3" fill="#4A90E2"/>
    <rect x="-3" y="-0.7" width="1.5" height="0.15" fill="#7FB3D3"/>
    <rect x="-1" y="-1.2" width="0.8" height="0.8" fill="#5DADE2"/>
    <rect x="0" y="-1.2" width="1" height="0.3" fill="#4A90E2"/>
    
    <!-- Monitor stand -->
    <rect x="-0.5" y="1" width="1" height="1.5" fill="#34495E"/>
    <rect x="-2" y="2.5" width="4" height="0.5" rx="0.2" fill="#2C3E50"/>
  </g>
</svg>